<?xml version="1.0" encoding="UTF-8"?>
<svg id="Layer_1" data-name="Layer 1" xmlns="http://www.w3.org/2000/svg" version="1.1" viewBox="0 0 256.5 62">
  <defs>
    <style>
      .cls-1 {
        fill: #fff;
        stroke-width: 0px;
      }
    </style>
  </defs>
  <g>
    <path class="cls-1" d="M64.4000015,45.5999985c-4.7999992-5.5-7.0999985-13.7000008-7.0999985-25.2999992v-6c0-3.8999996-3.2000008-7.1999998-7.2000008-7.1999998h-7.2000008V0h-4.7999992v17.8999996h4.7999992v-6h7.2000008c1.2999992,0,2.4000015,1.1000004,2.4000015,2.3999996v6c0,12.1000023,2.4000015,21.1000023,7.4000015,27.3999977H15.5c-1,0-1.8999996-.4000015-2.6000004-1.0999985-5.4000001-5.4000015-8.1000004-14.0999985-8.1000004-26.3999996v-6c0-1.3000002,1.0999999-2.3999996,2.4000001-2.3999996h2.4000001v-4.8000002h-2.4000001C3.2999992,6.999999-.0000005,10.1999989-.0000005,14.1999989v40.5999966C-.0000005,58.6999969,3.1999996,61.9999962,7.1999993,61.9999962h43.0000014c3.9000015,0,7.2000008-3.2000008,7.2000008-7.2000008v-2.4000015h4c1.7000008,0,3.0999985-.9000015,3.8000031-2.4000015.6999969-1.5.4000015-3.2000008-.6999969-4.4000015l-.1000061.0000076ZM52.5,54.9000015c0,1.2999992-1.0999985,2.4000015-2.4000015,2.4000015H7.1999998c-1.3000002,0-2.4000001-1.0999985-2.4000001-2.4000015v-11.2000008c1.2999997,2.4000015,2.9000001,4.5,4.7000003,6.4000015,1.6000004,1.5999985,3.6999998,2.4000015,6,2.4000015h37s0,2.4000015,0,2.3999977Z"/>
    <polygon class="cls-1" points="20.2999992 11.8999996 32.2000008 11.8999996 32.2000008 7.1999998 20.2999992 7.1999998 20.2999992 0 15.5 0 15.5 17.8999996 20.2999992 17.8999996 20.2999992 11.8999996"/>
    <path class="cls-1" d="M30.2999992,38.2000008c6.7000008,0,12.6000023-3.7000008,15.6000023-9.7000008l-4.2999992-2.1000004c-2.0999985,4.3000011-6.5,7.0000019-11.2999992,7.0000019s-9.2000008-2.7000008-11.2999992-7l-4.3000002,2.1000004c3.000001,5.9999981,8.8999987,9.6999989,15.5999956,9.6999989Z"/>
  </g>
  <g>
    <path class="cls-1" d="M74.5999985,14.6000004h23.2000046v4.3999996h-8.8000031v28.7000008h-5.4000015v-28.7000008h-8.9000015v-4.3999996h-.0999985Z"/>
    <path class="cls-1" d="M103.5,14.5c0-2,1.5-3.5,3.5-3.5s3.4000015,1.5,3.4000015,3.5-1.5,3.5-3.4000015,3.5-3.5-1.5-3.5-3.5ZM104.1999969,21.3999996h5.4000015v26.2999973h-5.4000015s0-26.2999992,0-26.2999973Z"/>
    <path class="cls-1" d="M128.3999939,21c3.3999939,0,7.1000061,1.6000004,9.1000061,4.1000004v-12.6999998h5.5v35.3000002h-5.5v-4c-1.6999969,2.4000015-4.8000031,4.4000015-9.1000061,4.4000015-6.9000015,0-12.4000015-5.5999985-12.4000015-13.7000008s5.5-13.5,12.5000076-13.5l-.1000061.0999985ZM129.5,25.7000008c-4.0999985,0-8,3.1000004-8,8.7000008s3.9000015,9,8,9c4.1000061,0,8-3.2000008,8-8.9000015s-3.8999939-8.7999992-8-8.7999992Z"/>
    <path class="cls-1" d="M169.1999969,21.3999996h5.6000061l-16.1000061,38.6999989h-5.6000061l5.3000031-12.7999992-10.3999939-25.8999996h6.1000061l7.3999939,20.0000019s7.6999969-20,7.6999969-20.0000019Z"/>
    <path class="cls-1" d="M195.5,14.1000004c6.8999939,0,12.8999939,3.5,15.3999939,10h-6.5c-1.8000031-3.5-4.8999939-5.1999989-8.8999939-5.1999989-6.6000061,0-11.3999939,4.7000008-11.3999939,12.2000008s4.8000031,12.2000008,11.3999939,12.2000008,7.1000061-1.7000008,8.8999939-5.2000008h6.5c-2.5,6.5-8.5,9.8999977-15.3999939,9.8999977s-16.8999939-7-16.8999939-16.8999996,7.6000061-16.8999996,16.8999939-16.8999996h0v-.1000004Z"/>
    <path class="cls-1" d="M228.3000031,21c4.3999939,0,7.5,2.1000004,9.1000061,4.2000008v-3.7999992h5.5v26.2999992h-5.5v-3.9000015c-1.6999969,2.2000008-4.8000031,4.2999992-9.1999969,4.2999992-6.8000031,0-12.3000031-5.5999985-12.3000031-13.7000008s5.5-13.5,12.3999939-13.5v.1000023ZM229.3999939,25.7000008c-4.1000061,0-8,3.1000004-8,8.7000008s3.8999939,9,8,9,8-3.2000008,8-8.9000015-3.8999939-8.7999992-8-8.7999992Z"/>
    <path class="cls-1" d="M251,12.3999996h5.3999939v35.2999973h-5.3999939V12.3999996Z"/>
  </g>
</svg>